<?xml version="1.0" encoding="UTF-8"?>
<svg version="1.1" xmlns="http://www.w3.org/2000/svg" width="512" height="512">
<path d="M0 0 C9.85503607 23.34591069 14.19035292 46.60598206 4.90234375 70.8671875 C-4.14070991 90.54732461 -22.50258695 102.31801126 -42.0625 109.75 C-58.86993001 115.80827138 -76.27083652 118.48821087 -94 120 C-93.01 127.59 -92.02 135.18 -91 143 C-89.783125 141.845 -88.56625 140.69 -87.3125 139.5 C-70.31548765 124.403441 -51.01274204 118.64285149 -28.66064453 119.80175781 C-0.95073994 121.86639743 31.45318135 131.95104152 53 150 C54.25296875 151.02867187 54.25296875 151.02867187 55.53125 152.078125 C81.44149599 174.30975582 92.18720276 206.74607199 95 240 C95.146998 243.19706943 95.18624663 246.38968125 95.203125 249.58984375 C95.21013931 250.48341583 95.21715363 251.37698792 95.22438049 252.29763794 C95.24183176 255.17764363 95.24823641 258.05744332 95.25 260.9375 C95.25067474 261.92386444 95.25134949 262.91022888 95.25204468 263.92648315 C95.23513677 279.49582071 94.5789516 294.61607984 92 310 C91.82307617 311.08410156 91.64615234 312.16820312 91.46386719 313.28515625 C83.99183173 358.24641968 73.19379948 408.49131106 46 446 C45.38898438 446.8559375 44.77796875 447.711875 44.1484375 448.59375 C25.11717869 473.74519336 -1.68084496 492.35645058 -33.12109375 497.3359375 C-56.94978709 500.4791163 -80.26548495 495.07058929 -100.734375 482.890625 C-105.92234862 479.88706133 -110.12314571 479.36948729 -116 480 C-118.92080801 480.90752714 -121.54405929 482.21042245 -124.25 483.625 C-125.73820041 484.3608406 -127.22648246 485.09651611 -128.71484375 485.83203125 C-130.14338011 486.55438908 -131.57177368 487.27702936 -133 488 C-156.54562397 499.63097088 -179.03376879 500.39053129 -204 492 C-218.44485845 486.88845114 -231.60463638 479.21885115 -243 469 C-244.00742554 468.1245545 -245.01525218 467.2495704 -246.0234375 466.375 C-252.74139599 460.46848626 -258.60867173 454.15351154 -264 447 C-264.39928711 446.47035645 -264.79857422 445.94071289 -265.20996094 445.39501953 C-293.78190656 407.1987222 -308.4951495 361.70624327 -316 315 C-316.16516113 313.97583984 -316.33032227 312.95167969 -316.50048828 311.89648438 C-321.18367118 281.15310788 -322.01300689 246.60585614 -316 216 C-315.82307617 215.06559082 -315.64615234 214.13118164 -315.46386719 213.16845703 C-309.87840513 184.37776358 -299.12720184 157.58508797 -274.01831055 140.47363281 C-247.39120533 122.98937043 -213.45457735 119.79674151 -182.625 126.0625 C-163.12357476 130.36373435 -144.83574221 137.69127456 -129 150 C-132.46898518 126.97232864 -137.99566532 104.27802588 -145.27294922 82.1496582 C-147.06905529 76.51996855 -148.1787378 71.511224 -145.5625 65.9375 C-141.50561854 61.28692857 -137.38229047 57.71156181 -131.21484375 56.4140625 C-126.45205945 56.13890852 -122.97136975 56.45953954 -119.1875 59.5 C-115.72332838 62.99764188 -112.79937233 66.95988023 -110 71 C-108.13434758 68.20152136 -106.83419469 65.42165027 -105.48852539 62.3515625 C-94.52520395 37.65768956 -74.46784756 20.85941947 -49.56054688 11.03808594 C-34.10964437 5.25733769 -16.65836399 0 0 0 Z " fill="#59C314" transform="translate(368,7)"/>
<path d="M0 0 C16.5466302 2.46374457 33.35608917 18.34728449 43 31.125 C59.98739103 55.39270147 68.04705298 83.99837507 68.203125 113.58984375 C68.21013931 114.48341583 68.21715363 115.37698792 68.22438049 116.29763794 C68.24183176 119.17764363 68.24823641 122.05744332 68.25 124.9375 C68.25067474 125.92386444 68.25134949 126.91022888 68.25204468 127.92648315 C68.23513677 143.49582071 67.5789516 158.61607984 65 174 C64.82307617 175.08410156 64.64615234 176.16820312 64.46386719 177.28515625 C56.99183173 222.24641968 46.19379948 272.49131106 19 310 C18.38898438 310.8559375 17.77796875 311.711875 17.1484375 312.59375 C-1.88282131 337.74519336 -28.68084496 356.35645058 -60.12109375 361.3359375 C-82.61914729 364.30359519 -106.09212051 359.8799436 -125.46020508 348.12255859 C-129.58427234 345.63903086 -133.3117813 344.12976404 -138 343 C-136.60123742 340.20247484 -134.6703687 340.02914001 -131.83299255 339.07223511 C-131.10177689 338.83312408 -130.37056122 338.59401306 -129.6171875 338.34765625 C-128.05176818 337.81929564 -126.48659226 337.29021344 -124.92163086 336.76049805 C-124.09726532 336.48378265 -123.27289978 336.20706726 -122.42355347 335.92196655 C-102.29350209 329.1333682 -82.12041079 321.92615543 -65 309 C-63.93523437 308.22785156 -62.87046875 307.45570313 -61.7734375 306.66015625 C-47.25362376 295.89507397 -34.35822282 282.80775506 -24 268 C-23.4124292 267.17097168 -23.4124292 267.17097168 -22.81298828 266.32519531 C22.11696601 202.60372539 25.67630958 132.97338068 12.91796875 58.11816406 C11.45940249 49.82385239 9.71228811 41.59274389 7.875 33.375 C7.71118835 32.6420874 7.54737671 31.9091748 7.37860107 31.15405273 C5.44969467 22.60597972 3.26590484 14.17248992 0.73876953 5.77978516 C0 3 0 3 0 0 Z " fill="#52B512" transform="translate(395,143)"/>
<path d="M0 0 C9.85503607 23.34591069 14.19035292 46.60598206 4.90234375 70.8671875 C-4.14070991 90.54732461 -22.50258695 102.31801126 -42.0625 109.75 C-58.82014362 115.79032578 -76.30071414 118.6162752 -94 120 C-93.855625 120.79921875 -93.71125 121.5984375 -93.5625 122.421875 C-92.96773338 125.94091081 -92.46772525 129.46188478 -92 133 C-91.84015625 134.08539063 -91.6803125 135.17078125 -91.515625 136.2890625 C-91.24108939 139.47852029 -91.17554329 141.90149237 -92 145 C-97.12058131 150.65438708 -104.14860272 153.72286242 -111.69140625 154.265625 C-112.96886719 154.26046875 -114.24632812 154.2553125 -115.5625 154.25 C-117.48255859 154.25773437 -117.48255859 154.25773437 -119.44140625 154.265625 C-122.94997387 154.00373411 -124.97538268 153.75027988 -128 152 C-129.08325195 149.21972656 -129.08325195 149.21972656 -129.73828125 145.640625 C-129.864841 144.99210571 -129.99140076 144.34358643 -130.12179565 143.67541504 C-130.39427905 142.27148488 -130.65722944 140.86567832 -130.91171265 139.45837402 C-131.59338252 135.70231228 -132.34998395 131.96134099 -133.1015625 128.21875 C-133.25402939 127.45181824 -133.40649628 126.68488647 -133.56358337 125.89471436 C-135.13593133 118.09609783 -137.10724615 110.42658099 -139.1875 102.75 C-139.50823486 101.55793945 -139.82896973 100.36587891 -140.15942383 99.13769531 C-142.02849659 92.2903774 -144.05127218 85.50644701 -146.21020508 78.74487305 C-147.6282112 73.81669908 -147.74364082 70.58427827 -145.5625 65.9375 C-141.50561854 61.28692857 -137.38229047 57.71156181 -131.21484375 56.4140625 C-126.45205945 56.13890852 -122.97136975 56.45953954 -119.1875 59.5 C-115.72332838 62.99764188 -112.79937233 66.95988023 -110 71 C-108.13434758 68.20152136 -106.83419469 65.42165027 -105.48852539 62.3515625 C-94.52520395 37.65768956 -74.46784756 20.85941947 -49.56054688 11.03808594 C-34.10964437 5.25733769 -16.65836399 0 0 0 Z " fill="#3A980A" transform="translate(368,7)"/>
<path d="M0 0 C5.14979365 2.57489682 7.79478125 7.83127676 10 13 C14.69887935 28.32456821 12.30755778 44.93615793 8.65478516 60.23486328 C7.93021751 63.29468921 7.25062505 66.36277267 6.57421875 69.43359375 C3.83295135 81.76526709 0.89611527 93.97972258 -3 106 C-3.26425781 106.82790039 -3.52851562 107.65580078 -3.80078125 108.50878906 C-11.53776409 132.52346526 -11.53776409 132.52346526 -20 138 C-22.875 138.1875 -22.875 138.1875 -26 137 C-36.0055051 128.1609398 -40.95364532 108.80764454 -42 96 C-43.26127205 64.37870714 -37.36601118 28.01386675 -16 3 C-11.3963184 -1.04565959 -5.80666269 -0.75433987 0 0 Z " fill="#7ED744" transform="translate(128,167)"/>
<path d="M0 0 C2.98936739 1.50049958 4.8711439 3.44640862 7 6 C7.56074219 6.64582031 8.12148437 7.29164062 8.69921875 7.95703125 C22.6121719 25.80938238 28.18672176 51.92837572 30.75830078 73.95214844 C30.98106324 75.83955401 31.25200594 77.72110723 31.52734375 79.6015625 C31.81129884 82.73673785 31.91329131 84.98757315 31 88 C25.83055376 93.63758492 18.88252054 96.72062286 11.30859375 97.265625 C10.03113281 97.26046875 8.75367188 97.2553125 7.4375 97.25 C5.51744141 97.25773437 5.51744141 97.25773437 3.55859375 97.265625 C0.05002613 97.00373411 -1.97538268 96.75027988 -5 95 C-6.08325195 92.21972656 -6.08325195 92.21972656 -6.73828125 88.640625 C-6.864841 87.99210571 -6.99140076 87.34358643 -7.12179565 86.67541504 C-7.39427905 85.27148488 -7.65722944 83.86567832 -7.91171265 82.45837402 C-8.59338252 78.70231228 -9.34998395 74.96134099 -10.1015625 71.21875 C-10.25402939 70.45181824 -10.40649628 69.68488647 -10.56358337 68.89471436 C-12.13593133 61.09609783 -14.10724615 53.42658099 -16.1875 45.75 C-16.50823486 44.55793945 -16.82896973 43.36587891 -17.15942383 42.13769531 C-19.02849659 35.2903774 -21.05127218 28.50644701 -23.21020508 21.74487305 C-24.6282112 16.81669908 -24.74364082 13.58427827 -22.5625 8.9375 C-16.33988799 1.80426185 -9.64957984 -2.14109218 0 0 Z " fill="#744C28" transform="translate(245,64)"/>
<path d="M0 0 C0 4.17505642 -2.29915359 6.02529589 -4.9375 9 C-5.95659797 10.17372538 -6.97481492 11.34821626 -7.9921875 12.5234375 C-8.50233398 13.10963867 -9.01248047 13.69583984 -9.53808594 14.29980469 C-11.6004152 16.69827846 -13.58052284 19.1599603 -15.5625 21.625 C-19.43929769 26.38950808 -23.51471532 30.9364389 -27.671875 35.45703125 C-29.60694262 37.57067054 -31.50208297 39.70659848 -33.375 41.875 C-37.90978541 47.08473021 -42.61781616 52.13503754 -47.32128906 57.19189453 C-48.99753496 58.99734495 -50.66688539 60.80899389 -52.3359375 62.62109375 C-63.23630136 74.40197139 -74.60214773 85.70367718 -86 97 C-87.0625 95.125 -87.0625 95.125 -88 93 C-86.73392635 90.46785269 -85.11255345 88.3472598 -83.4375 86.0625 C-81.28243917 83.12134046 -79.12909598 80.18048124 -77.0078125 77.21484375 C-66.2698356 62.22911294 -53.98044943 48.90363921 -41.02227783 35.8470459 C-40.02395359 34.84067614 -39.02711386 33.8328311 -38.03192139 32.82336426 C-31.37336999 26.07956585 -24.43130155 19.8953509 -17 14 C-15.82183017 13.02920133 -14.64669467 12.05469052 -13.4765625 11.07421875 C-9.01611695 7.34088693 -4.55436952 3.6186536 0 0 Z " fill="#3D7F15" transform="translate(357,17)"/>
</svg>
